<?xml version="1.0" encoding="utf-8"?>
<!-- Generator: Adobe Illustrator 28.1.0, SVG Export Plug-In . SVG Version: 6.00 Build 0)  -->
<svg version="1.1" id="Layer_1" xmlns="http://www.w3.org/2000/svg" xmlns:xlink="http://www.w3.org/1999/xlink" x="0px" y="0px"
	 viewBox="0 0 512 512" style="enable-background:new 0 0 512 512;" xml:space="preserve">
<style type="text/css">
	.st0{fill:#6F6F6F;}
	.st1{fill:#515151;}
	.st2{fill:#368879;}
</style>
<g>
	<path class="st0" d="M82,298V134c0-55.2,44.6-100,99.7-100H121C65.8,34,21,78.8,21,134v164c0,55.2,44.8,100,100,100h60.7
		C126.6,398,82,353.2,82,298L82,298z"/>
	<path class="st1" d="M392,418H120C53.8,418,0,364.2,0,298V134C0,67.8,53.8,14,120,14h272c66.2,0,120,53.8,120,120v164
		C512,364.2,458.2,418,392,418z M120,54c-44.1,0-80,35.9-80,80v164c0,44.1,35.9,80,80,80h272c44.1,0,80-35.9,80-80V134
		c0-44.1-35.9-80-80-80H120z M372,478c0-11-9-20-20-20H160c-11,0-20,9-20,20s9,20,20,20h192C363,498,372,489,372,478z"/>
	<path class="st2" d="M352.3,252.9l-13.3-8c2.6-8.2,4-16.8,4-25.9s-1.4-17.7-4-25.9l13.3-8c9.5-5.7,12.5-18,6.9-27.4
		s-18-12.5-27.4-6.9l-13.6,8.1c-10.9-10.9-24.7-18.9-40.1-22.6V119c0-11-9-20-20-20s-20,9-20,20v17.4c-15.8,3.8-29.9,12.1-40.9,23.4
		l-14.8-8.9c-9.5-5.7-21.8-2.6-27.4,6.9c-5.7,9.5-2.6,21.8,6.9,27.4l15,9c-2.4,7.9-3.7,16.2-3.7,24.8s1.3,17,3.7,24.8l-15,9
		c-9.5,5.7-12.5,18-6.9,27.4c3.8,6.2,10.4,9.7,17.2,9.7c3.5,0,7.1-0.9,10.3-2.9l14.8-8.9c11,11.3,25.1,19.5,40.9,23.4V319
		c0,11,9,20,20,20c11,0,20-9,20-20v-17.4c15.4-3.7,29.3-11.7,40.1-22.6l13.6,8.1c3.2,1.9,6.8,2.9,10.3,2.9c6.8,0,13.4-3.5,17.2-9.7
		C364.8,270.8,361.8,258.5,352.3,252.9L352.3,252.9z M258,264c-24.8,0-45-20.2-45-45s20.2-45,45-45s45,20.2,45,45S282.8,264,258,264
		z"/>
</g>
</svg>
