<?xml version="1.0" encoding="utf-8"?>
<!-- Generator: Adobe Illustrator 28.1.0, SVG Export Plug-In . SVG Version: 6.00 Build 0)  -->
<svg version="1.1" id="Layer_1" xmlns="http://www.w3.org/2000/svg" xmlns:xlink="http://www.w3.org/1999/xlink" x="0px" y="0px"
	 viewBox="0 0 512 512" style="enable-background:new 0 0 512 512;" xml:space="preserve">
<style type="text/css">
	.st0{fill:#6F6F6F;}
	.st1{fill:#515151;}
	.st2{fill:#368879;}
</style>
<g>
	<path class="st0" d="M80,452c0-22.1,17.9-40,40-40H60c-22.1,0-40,17.9-40,40s17.9,40,40,40h60C97.9,492,80,474.1,80,452z"/>
	<path class="st1" d="M452,357c-11,0-20-9-20-20v-28c0-11,9-20,20-20s20,9,20,20v28C472,348,463,357,452,357z M80,337V190
		c0-44.1,35.9-80,80-80h37c11,0,20-9,20-20s-9-20-20-20h-37C93.8,70,40,123.8,40,190v147c0,11,9,20,20,20S80,348,80,337z M512,452
		c0-33.1-26.9-60-60-60H60c-33.1,0-60,26.9-60,60s26.9,60,60,60h392C485.1,512,512,485.1,512,452z M452,432c11,0,20,9,20,20
		s-9,20-20,20H60c-11,0-20-9-20-20s9-20,20-20H452z"/>
	<path class="st2" d="M267.5,264c-2.6,0-5.2-0.5-7.6-1.5c-7.5-3.1-12.3-10.4-12.3-18.5l0-110.8c-0.3-35.4,13.3-68.7,38.3-94
		C310.8,13.9,344.1,0,379.5,0c35.6,0,68.9,13.8,93.8,39c25,25.2,38.5,58.7,38.2,94.3c-0.3,35.1-14.3,68-39.3,92.6
		c-24.9,24.6-58,38.1-93.1,38.1c0,0-0.1,0-0.1,0c-20.6,0-40.4-4.6-58.7-13.7c-12.3-6.1-27.1-3.7-36.8,6l-1.8,1.8
		C277.8,262,272.7,264,267.5,264L267.5,264z M306.1,206.9c10.9,0,21.8,2.5,32,7.5c12.7,6.3,26.4,9.5,40.9,9.5c0,0,0.1,0,0.1,0
		c50.5,0,92-40.9,92.5-91.1c0.2-24.9-9.2-48.3-26.6-65.8C427.6,49.6,404.4,40,379.5,40c-24.6,0-47.8,9.7-65.3,27.3
		c-17.5,17.6-27,40.9-26.7,65.6c0,0.1,0,0.1,0,0.2l0,76.3C293.6,207.8,299.8,206.9,306.1,206.9L306.1,206.9z"/>
</g>
</svg>
