<?xml version="1.0" encoding="utf-8"?>
<!-- Generator: Adobe Illustrator 28.1.0, SVG Export Plug-In . SVG Version: 6.00 Build 0)  -->
<svg version="1.1" id="Layer_1" xmlns="http://www.w3.org/2000/svg" xmlns:xlink="http://www.w3.org/1999/xlink" x="0px" y="0px"
	 viewBox="0 0 512 512" style="enable-background:new 0 0 512 512;" xml:space="preserve">
<style type="text/css">
	.st0{fill:#6F6F6F;}
	.st1{fill:#515151;}
	.st2{fill:#368879;}
</style>
<g>
	<path class="st0" d="M223.7,492H163c-55.2,0-100-44.8-100-100V120c0-55.2,44.8-100,100-100h60.7C168.6,20,124,64.8,124,120V392
		C124,447.2,168.6,492,223.7,492z M264.2,181c0-18,9.1-33.8,23-43.2c-8.3-5.6-18.3-8.8-29-8.8c-28.7,0-52,23.3-52,52s23.3,52,52,52
		c10.7,0,20.7-3.3,29-8.8C273.3,214.8,264.2,199,264.2,181z"/>
	<path class="st1" d="M348,512H164c-66.2,0-120-53.8-120-120V120C44,53.8,97.8,0,164,0h184c66.2,0,120,53.8,120,120v272
		C468,458.2,414.2,512,348,512z M164,40c-44.1,0-80,35.9-80,80v272c0,44.1,35.9,80,80,80h184c44.1,0,80-35.9,80-80V120
		c0-44.1-35.9-80-80-80H164z M258,253c-39.7,0-72-32.3-72-72s32.3-72,72-72s72,32.3,72,72S297.7,253,258,253z M258,149
		c-17.6,0-32,14.4-32,32s14.4,32,32,32s32-14.4,32-32S275.6,149,258,149z"/>
	<path class="st2" d="M336,398.9c-11,0-20-9-20-20c0-29.2-23.9-52.9-53.2-52.9h-13.6c-29.3,0-53.2,23.7-53.2,52.9c0,11-9,20-20,20
		s-20-9-20-20c0-51.2,41.8-92.9,93.2-92.9h13.6c51.4,0,93.2,41.7,93.2,92.9C356,389.9,347,398.9,336,398.9z"/>
</g>
</svg>
