<?xml version="1.0" encoding="utf-8"?>
<!-- Generator: Adobe Illustrator 28.1.0, SVG Export Plug-In . SVG Version: 6.00 Build 0)  -->
<svg version="1.1" id="Layer_1" xmlns="http://www.w3.org/2000/svg" xmlns:xlink="http://www.w3.org/1999/xlink" x="0px" y="0px"
	 viewBox="0 0 512 512" style="enable-background:new 0 0 512 512;" xml:space="preserve">
<style type="text/css">
	.st0{fill:#6F6F6F;}
	.st1{fill:#515151;}
	.st2{fill:#368879;}
</style>
<g>
	<path class="st0" d="M284,482.9c-8.6,5.7-16.9,9.1-28,9.1c-29.8,0-54-24.2-54-54v-82c0-29.8,24.2-54,54-54c11.1,0,19.4,3.4,28,9.1
		c-14.5,9.7-24,26.2-24,44.9v82C260,456.7,269.5,473.2,284,482.9z M442,438V263c0-18.7,9.5-35.2,24-44.9c-8.6-5.7-16.9-9.1-28-9.1
		c-29.8,0-54,24.2-54,54v175c0,29.8,24.2,54,54,54c11.1,0,19.4-3.4,28-9.1C451.5,473.2,442,456.7,442,438z M78,438V248
		c0-18.7,9.5-35.2,24-44.9c-8.6-5.7-16.9-9.1-28-9.1c-29.8,0-54,24.2-54,54v190c0,29.8,24.2,54,54,54c11.1,0,19.4-3.4,28-9.1
		C87.5,473.2,78,456.7,78,438z"/>
	<path class="st1" d="M74,512c-40.8,0-74-33.2-74-74V248c0-40.8,33.2-74,74-74s74,33.2,74,74v190C148,478.8,114.8,512,74,512z
		 M74,214c-18.7,0-34,15.3-34,34v190c0,18.7,15.3,34,34,34s34-15.3,34-34V248C108,229.3,92.7,214,74,214z M256,512
		c-40.8,0-74-33.2-74-74v-82c0-40.8,33.2-74,74-74s74,33.2,74,74v82C330,478.8,296.8,512,256,512z M256,322c-18.7,0-34,15.3-34,34
		v82c0,18.7,15.3,34,34,34s34-15.3,34-34v-82C290,337.3,274.7,322,256,322z M438,512c-40.8,0-74-33.2-74-74V263
		c0-40.8,33.2-74,74-74s74,33.2,74,74v175C512,478.8,478.8,512,438,512z M438,229c-18.7,0-34,15.3-34,34v175c0,18.7,15.3,34,34,34
		s34-15.3,34-34V263C472,244.3,456.7,229,438,229z"/>
	<path class="st2" d="M274.9,243.9c-15.3,0-30.6-4.9-43.4-15c-0.4-0.3-128-116.2-128-116.2c-11.4-8.6-27.1-8.1-37.9,1.3l-31.6,31.2
		c-7.9,7.8-20.5,7.7-28.3-0.2c-7.8-7.9-7.7-20.5,0.2-28.3c0,0,32.4-32.1,32.6-32.3C64,61.6,102,60.4,128.8,81.7
		c0.4,0.3,128,116.2,128,116.2c12.4,9.4,30,7.8,40.4-3.8c0.1-0.1,0.3-0.3,0.4-0.4L408.5,77.2c7.6-8,20.3-8.3,28.3-0.7
		c8,7.6,8.3,20.3,0.7,28.3L326.8,221.1C313.1,236.2,294.1,243.9,274.9,243.9L274.9,243.9z M512,114V60c0-33.1-26.9-60-60-60h-54
		c-11,0-20,9-20,20s9,20,20,20h54c11,0,20,9,20,20v54c0,11,9,20,20,20S512,125,512,114z"/>
</g>
</svg>
